# xmcd
#
# Track frame offsets:
# 150
# 13522
# 23942
# 37555
# 49505
# 63045
# 74795
# 91940
# 101345
# 112517
#
# Disc length: 1684 seconds
#
#
# Revision: 6
# Processed by: cddbd v1.5.2PL0 Copyright (c) Steve Scherf et al.
# Submitted via: FreeRIP 2.951 
#
DISCID=6806920a
DTITLE=Various Artist - The 101 Greatest Country Hits Vol 3: Easy Country
DYEAR=1900
DGENRE=country
TTITLE0=Lynn Anderson - Rose Garden
TTITLE1=George Hamilton IV - Abilene
TTITLE2=Dickie Lee - 9,999,999 Tears
TTITLE3=Skeeter Davis - The End of the World
TTITLE4=David Houston - Almost Persuaded
TTITLE5=Donna Fargo - The Happiest Girl in the Whole U.S.A.
TTITLE6=Ray Price - For The Good Times
TTITLE7=Hardin Trio - Tippy Toeing
TTITLE8=Don Gibson - Oh, Lonesome Me
TTITLE9=Barbara Fairchild - Teddy Bear Song
EXTD=Corrected Track listings
EXTT0=
EXTT1=
EXTT2=
EXTT3=
EXTT4=
EXTT5=
EXTT6=
EXTT7=
EXTT8=
EXTT9=
PLAYORDER=
